<svg xmlns="http://www.w3.org/2000/svg" version="1.1" xmlns:xlink="http://www.w3.org/1999/xlink" xmlns:svgjs="http://svgjs.dev/svgjs" width="1920" height="1080" preserveAspectRatio="none" viewBox="0 0 1920 1080"><g mask="url(&quot;#SvgjsMask1781&quot;)" fill="none"><rect width="1920" height="1080" x="0" y="0" fill="rgba(189, 212, 241, 1)"></rect><use xlink:href="#SvgjsG1791" transform="translate(0, 0)" fill="rgba(170, 189, 213, 1)"></use><use xlink:href="#SvgjsG1791" transform="translate(0, 160.99999999999997)" fill="rgba(170, 189, 213, 1)"></use><use xlink:href="#SvgjsG1791" transform="translate(0, 321.99999999999994)" fill="rgba(170, 189, 213, 1)"></use><use xlink:href="#SvgjsG1791" transform="translate(0, 482.9999999999999)" fill="rgba(170, 189, 213, 1)"></use><use xlink:href="#SvgjsG1791" transform="translate(0, 643.9999999999999)" fill="rgba(170, 189, 213, 1)"></use><use xlink:href="#SvgjsG1791" transform="translate(0, 804.9999999999999)" fill="rgba(170, 189, 213, 1)"></use><use xlink:href="#SvgjsG1791" transform="translate(0, 965.9999999999998)" fill="rgba(170, 189, 213, 1)"></use><use xlink:href="#SvgjsG1791" transform="translate(160.99999999999997, 0)" fill="rgba(170, 189, 213, 1)"></use><use xlink:href="#SvgjsG1791" transform="translate(160.99999999999997, 160.99999999999997)" fill="rgba(170, 189, 213, 1)"></use><use xlink:href="#SvgjsG1791" transform="translate(160.99999999999997, 321.99999999999994)" fill="rgba(170, 189, 213, 1)"></use><use xlink:href="#SvgjsG1791" transform="translate(160.99999999999997, 482.9999999999999)" fill="rgba(170, 189, 213, 1)"></use><use xlink:href="#SvgjsG1791" transform="translate(160.99999999999997, 643.9999999999999)" fill="rgba(170, 189, 213, 1)"></use><use xlink:href="#SvgjsG1791" transform="translate(160.99999999999997, 804.9999999999999)" fill="rgba(170, 189, 213, 1)"></use><use xlink:href="#SvgjsG1791" transform="translate(160.99999999999997, 965.9999999999998)" fill="rgba(170, 189, 213, 1)"></use><use xlink:href="#SvgjsG1791" transform="translate(321.99999999999994, 0)" fill="rgba(170, 189, 213, 1)"></use><use xlink:href="#SvgjsG1791" transform="translate(321.99999999999994, 160.99999999999997)" fill="rgba(170, 189, 213, 1)"></use><use xlink:href="#SvgjsG1791" transform="translate(321.99999999999994, 321.99999999999994)" fill="rgba(170, 189, 213, 1)"></use><use xlink:href="#SvgjsG1791" transform="translate(321.99999999999994, 482.9999999999999)" fill="rgba(170, 189, 213, 1)"></use><use xlink:href="#SvgjsG1791" transform="translate(321.99999999999994, 643.9999999999999)" fill="rgba(170, 189, 213, 1)"></use><use xlink:href="#SvgjsG1791" transform="translate(321.99999999999994, 804.9999999999999)" fill="rgba(170, 189, 213, 1)"></use><use xlink:href="#SvgjsG1791" transform="translate(321.99999999999994, 965.9999999999998)" fill="rgba(170, 189, 213, 1)"></use><use xlink:href="#SvgjsG1791" transform="translate(482.9999999999999, 0)" fill="rgba(170, 189, 213, 1)"></use><use xlink:href="#SvgjsG1791" transform="translate(482.9999999999999, 160.99999999999997)" fill="rgba(170, 189, 213, 1)"></use><use xlink:href="#SvgjsG1791" transform="translate(482.9999999999999, 321.99999999999994)" fill="rgba(170, 189, 213, 1)"></use><use xlink:href="#SvgjsG1791" transform="translate(482.9999999999999, 482.9999999999999)" fill="rgba(170, 189, 213, 1)"></use><use xlink:href="#SvgjsG1791" transform="translate(482.9999999999999, 643.9999999999999)" fill="rgba(170, 189, 213, 1)"></use><use xlink:href="#SvgjsG1791" transform="translate(482.9999999999999, 804.9999999999999)" fill="rgba(170, 189, 213, 1)"></use><use xlink:href="#SvgjsG1791" transform="translate(482.9999999999999, 965.9999999999998)" fill="rgba(170, 189, 213, 1)"></use><use xlink:href="#SvgjsG1791" transform="translate(643.9999999999999, 0)" fill="rgba(170, 189, 213, 1)"></use><use xlink:href="#SvgjsG1791" transform="translate(643.9999999999999, 160.99999999999997)" fill="rgba(170, 189, 213, 1)"></use><use xlink:href="#SvgjsG1791" transform="translate(643.9999999999999, 321.99999999999994)" fill="rgba(170, 189, 213, 1)"></use><use xlink:href="#SvgjsG1791" transform="translate(643.9999999999999, 482.9999999999999)" fill="rgba(170, 189, 213, 1)"></use><use xlink:href="#SvgjsG1791" transform="translate(643.9999999999999, 643.9999999999999)" fill="rgba(170, 189, 213, 1)"></use><use xlink:href="#SvgjsG1791" transform="translate(643.9999999999999, 804.9999999999999)" fill="rgba(170, 189, 213, 1)"></use><use xlink:href="#SvgjsG1791" transform="translate(643.9999999999999, 965.9999999999998)" fill="rgba(170, 189, 213, 1)"></use><use xlink:href="#SvgjsG1791" transform="translate(804.9999999999999, 0)" fill="rgba(170, 189, 213, 1)"></use><use xlink:href="#SvgjsG1791" transform="translate(804.9999999999999, 160.99999999999997)" fill="rgba(170, 189, 213, 1)"></use><use xlink:href="#SvgjsG1791" transform="translate(804.9999999999999, 321.99999999999994)" fill="rgba(170, 189, 213, 1)"></use><use xlink:href="#SvgjsG1791" transform="translate(804.9999999999999, 482.9999999999999)" fill="rgba(170, 189, 213, 1)"></use><use xlink:href="#SvgjsG1791" transform="translate(804.9999999999999, 643.9999999999999)" fill="rgba(170, 189, 213, 1)"></use><use xlink:href="#SvgjsG1791" transform="translate(804.9999999999999, 804.9999999999999)" fill="rgba(170, 189, 213, 1)"></use><use xlink:href="#SvgjsG1791" transform="translate(804.9999999999999, 965.9999999999998)" fill="rgba(170, 189, 213, 1)"></use><use xlink:href="#SvgjsG1791" transform="translate(965.9999999999998, 0)" fill="rgba(170, 189, 213, 1)"></use><use xlink:href="#SvgjsG1791" transform="translate(965.9999999999998, 160.99999999999997)" fill="rgba(170, 189, 213, 1)"></use><use xlink:href="#SvgjsG1791" transform="translate(965.9999999999998, 321.99999999999994)" fill="rgba(170, 189, 213, 1)"></use><use xlink:href="#SvgjsG1791" transform="translate(965.9999999999998, 482.9999999999999)" fill="rgba(170, 189, 213, 1)"></use><use xlink:href="#SvgjsG1791" transform="translate(965.9999999999998, 643.9999999999999)" fill="rgba(170, 189, 213, 1)"></use><use xlink:href="#SvgjsG1791" transform="translate(965.9999999999998, 804.9999999999999)" fill="rgba(170, 189, 213, 1)"></use><use xlink:href="#SvgjsG1791" transform="translate(965.9999999999998, 965.9999999999998)" fill="rgba(170, 189, 213, 1)"></use><use xlink:href="#SvgjsG1791" transform="translate(1126.9999999999998, 0)" fill="rgba(170, 189, 213, 1)"></use><use xlink:href="#SvgjsG1791" transform="translate(1126.9999999999998, 160.99999999999997)" fill="rgba(170, 189, 213, 1)"></use><use xlink:href="#SvgjsG1791" transform="translate(1126.9999999999998, 321.99999999999994)" fill="rgba(170, 189, 213, 1)"></use><use xlink:href="#SvgjsG1791" transform="translate(1126.9999999999998, 482.9999999999999)" fill="rgba(170, 189, 213, 1)"></use><use xlink:href="#SvgjsG1791" transform="translate(1126.9999999999998, 643.9999999999999)" fill="rgba(170, 189, 213, 1)"></use><use xlink:href="#SvgjsG1791" transform="translate(1126.9999999999998, 804.9999999999999)" fill="rgba(170, 189, 213, 1)"></use><use xlink:href="#SvgjsG1791" transform="translate(1126.9999999999998, 965.9999999999998)" fill="rgba(170, 189, 213, 1)"></use><use xlink:href="#SvgjsG1791" transform="translate(1287.9999999999998, 0)" fill="rgba(170, 189, 213, 1)"></use><use xlink:href="#SvgjsG1791" transform="translate(1287.9999999999998, 160.99999999999997)" fill="rgba(170, 189, 213, 1)"></use><use xlink:href="#SvgjsG1791" transform="translate(1287.9999999999998, 321.99999999999994)" fill="rgba(170, 189, 213, 1)"></use><use xlink:href="#SvgjsG1791" transform="translate(1287.9999999999998, 482.9999999999999)" fill="rgba(170, 189, 213, 1)"></use><use xlink:href="#SvgjsG1791" transform="translate(1287.9999999999998, 643.9999999999999)" fill="rgba(170, 189, 213, 1)"></use><use xlink:href="#SvgjsG1791" transform="translate(1287.9999999999998, 804.9999999999999)" fill="rgba(170, 189, 213, 1)"></use><use xlink:href="#SvgjsG1791" transform="translate(1287.9999999999998, 965.9999999999998)" fill="rgba(170, 189, 213, 1)"></use><use xlink:href="#SvgjsG1791" transform="translate(1448.9999999999998, 0)" fill="rgba(170, 189, 213, 1)"></use><use xlink:href="#SvgjsG1791" transform="translate(1448.9999999999998, 160.99999999999997)" fill="rgba(170, 189, 213, 1)"></use><use xlink:href="#SvgjsG1791" transform="translate(1448.9999999999998, 321.99999999999994)" fill="rgba(170, 189, 213, 1)"></use><use xlink:href="#SvgjsG1791" transform="translate(1448.9999999999998, 482.9999999999999)" fill="rgba(170, 189, 213, 1)"></use><use xlink:href="#SvgjsG1791" transform="translate(1448.9999999999998, 643.9999999999999)" fill="rgba(170, 189, 213, 1)"></use><use xlink:href="#SvgjsG1791" transform="translate(1448.9999999999998, 804.9999999999999)" fill="rgba(170, 189, 213, 1)"></use><use xlink:href="#SvgjsG1791" transform="translate(1448.9999999999998, 965.9999999999998)" fill="rgba(170, 189, 213, 1)"></use><use xlink:href="#SvgjsG1791" transform="translate(1609.9999999999998, 0)" fill="rgba(170, 189, 213, 1)"></use><use xlink:href="#SvgjsG1791" transform="translate(1609.9999999999998, 160.99999999999997)" fill="rgba(170, 189, 213, 1)"></use><use xlink:href="#SvgjsG1791" transform="translate(1609.9999999999998, 321.99999999999994)" fill="rgba(170, 189, 213, 1)"></use><use xlink:href="#SvgjsG1791" transform="translate(1609.9999999999998, 482.9999999999999)" fill="rgba(170, 189, 213, 1)"></use><use xlink:href="#SvgjsG1791" transform="translate(1609.9999999999998, 643.9999999999999)" fill="rgba(170, 189, 213, 1)"></use><use xlink:href="#SvgjsG1791" transform="translate(1609.9999999999998, 804.9999999999999)" fill="rgba(170, 189, 213, 1)"></use><use xlink:href="#SvgjsG1791" transform="translate(1609.9999999999998, 965.9999999999998)" fill="rgba(170, 189, 213, 1)"></use><use xlink:href="#SvgjsG1791" transform="translate(1770.9999999999998, 0)" fill="rgba(170, 189, 213, 1)"></use><use xlink:href="#SvgjsG1791" transform="translate(1770.9999999999998, 160.99999999999997)" fill="rgba(170, 189, 213, 1)"></use><use xlink:href="#SvgjsG1791" transform="translate(1770.9999999999998, 321.99999999999994)" fill="rgba(170, 189, 213, 1)"></use><use xlink:href="#SvgjsG1791" transform="translate(1770.9999999999998, 482.9999999999999)" fill="rgba(170, 189, 213, 1)"></use><use xlink:href="#SvgjsG1791" transform="translate(1770.9999999999998, 643.9999999999999)" fill="rgba(170, 189, 213, 1)"></use><use xlink:href="#SvgjsG1791" transform="translate(1770.9999999999998, 804.9999999999999)" fill="rgba(170, 189, 213, 1)"></use><use xlink:href="#SvgjsG1791" transform="translate(1770.9999999999998, 965.9999999999998)" fill="rgba(170, 189, 213, 1)"></use></g><defs><mask id="SvgjsMask1781"><rect width="1920" height="1080" fill="#ffffff"></rect></mask><g id="SvgjsG1790"><path d="M15.233 9.431c0.295 0 0.569-0.239 0.61-0.532 0 0 0.056-0.411 0.056-0.899s-0.056-0.899-0.056-0.899c-0.041-0.292-0.315-0.531-0.61-0.53h-1.524c-0.295 0-0.602-0.188-0.681-0.418s-0.188-0.967 0.021-1.176l1.078-1.077c0.209-0.209 0.225-0.565 0.036-0.792l-1.268-1.268c-0.227-0.189-0.583-0.173-0.792 0.036l-1.078 1.077c-0.208 0.209-0.556 0.293-0.772 0.187s-0.822-0.552-0.821-0.847V0.767c0-0.295-0.239-0.569-0.531-0.61 0 0-0.411-0.057-0.9-0.056s-0.899 0.057-0.899 0.056c-0.293 0.04-0.532 0.315-0.532 0.61v1.524c0 0.295-0.188 0.601-0.418 0.681s-0.967 0.188-1.176-0.021l-1.078-1.078C3.689 1.665 3.333 1.649 3.107 1.837l-1.268 1.268c-0.189 0.227-0.173 0.583 0.036 0.792l1.077 1.078c0.209 0.209 0.293 0.556 0.187 0.772s-0.552 0.822-0.847 0.822H0.767c-0.295 0-0.569 0.239-0.61 0.531 0 0-0.057 0.411-0.056 0.899s0.057 0.899 0.056 0.9c0.04 0.293 0.315 0.532 0.61 0.532h1.525c0.295 0 0.601 0.188 0.681 0.417 0.079 0.23 0.188 0.967-0.02 1.176l-1.078 1.077C1.667 12.311 1.651 12.667 1.84 12.893l1.267 1.268c0.227 0.189 0.583 0.173 0.792-0.036l1.077-1.077c0.209-0.208 0.556-0.292 0.772-0.187s0.821 0.553 0.822 0.848v1.524c0 0.295 0.239 0.569 0.532 0.61 0 0 0.411 0.057 0.899 0.057s0.899-0.056 0.899-0.057c0.293-0.04 0.531-0.315 0.532-0.609v-1.524c0-0.295 0.188-0.602 0.418-0.681 0.23-0.079 0.967-0.188 1.176 0.021l1.077 1.077c0.209 0.209 0.565 0.225 0.792 0.036l1.268-1.267c0.189-0.227 0.173-0.583-0.036-0.792l-1.078-1.077c-0.209-0.209-0.293-0.557-0.186-0.773 0.106-0.216 0.552-0.822 0.847-0.822h1.525zM8 10.892c-1.597 0-2.891-1.294-2.891-2.892 0-1.596 1.295-2.891 2.891-2.891S10.892 6.404 10.892 8 9.597 10.892 8 10.892z"></path></g><g id="SvgjsG1782"><path d="M11.675 13.031H3.563V2.436h8.112v10.595z m-4.054 1.54a0.457 0.457 0 1 1 0-0.912 0.457 0.457 0 0 1 0 0.912zM6.921 1.287h1.395c0.196 0 0.196 0.356 0 0.356h-1.397c-0.199 0-0.199-0.356 0-0.356zM11.495 0.409H3.744C3.413 0.409 3.143 0.761 3.143 1.191V14.276c0 0.427 0.267 0.779 0.601 0.778h7.751c0.332 0 0.604-0.35 0.605-0.778V1.191c0-0.432-0.272-0.782-0.605-0.782z" fill-rule="evenodd"></path></g><g id="SvgjsG1784"><path d="M7.45 12.652S6.4 11.121 3.725 11.121C1.274 11.121 0 11.833 0 11.833V1.937s1.274-0.712 3.725-0.729C6.4 1.19 7.45 2.756 7.45 2.756V12.652z m1.087 0s1.05-1.531 3.725-1.531c2.451 0 3.725 0.712 3.725 0.713V1.937s-1.274-0.712-3.725-0.729c-2.675-0.017-3.725 1.548-3.725 1.548v9.896z"></path><path d="M8.012 15.733S6.4 13.411 3.725 13.411c-2.451 0-3.725 0.712-3.725 0.712v-1.186s1.274-0.712 3.725-0.729c2.675-0.018 4.287 2.34 4.287 2.34V15.733z m0 0s1.612-2.323 4.287-2.323c2.451 0 3.725 0.712 3.725 0.712v-1.185s-1.274-0.712-3.725-0.729c-2.675-0.019-4.287 2.339-4.287 2.339v1.185z"></path></g><g id="SvgjsG1787"><path d="M3.236 14.219c1.457 0 2.639-1.182 2.639-2.641 0-1.454-1.182-2.637-2.639-2.637-1.453 0-2.636 1.182-2.636 2.638 0 1.459 1.182 2.641 2.636 2.642zM0 11.578c0-1.787 1.452-3.234 3.236-3.234 1.789 0 3.239 1.446 3.239 3.234 0 1.79-1.45 3.237-3.239 3.237C1.452 14.815 0 13.367 0 11.578z m12.764 2.671c1.453 0 2.636-1.18 2.636-2.639 0-1.457-1.182-2.637-2.636-2.637-1.457 0-2.639 1.181-2.639 2.638 0 1.459 1.182 2.64 2.639 2.64zM9.525 11.61c0-1.789 1.452-3.236 3.239-3.236 1.784 0 3.236 1.446 3.236 3.236s-1.452 3.237-3.236 3.237c-1.788 0-3.239-1.448-3.239-3.237z m0.009-7.898c0.672 0 1.218-0.542 1.218-1.214S10.206 1.28 9.534 1.28s-1.218 0.546-1.218 1.218 0.546 1.214 1.218 1.214z"></path><path d="M9.584 6.666c-0.176 0.004-0.366-0.084-0.506-0.306l-0.791-1.235-1.631 1.614 1.513 0.795c0.622 0.298 0.528 0.844 0.528 0.844v3.424c0 0.388-0.312 0.704-0.701 0.704s-0.701-0.316-0.7-0.704V9.062l-2.623-1.457a1.02 1.02 0 0 1-0.525-0.889 1.003 1.003 0 0 1 0.262-0.683l2.573-2.577c0.32-0.362 0.765-0.304 0.765-0.304 0.539 0 0.823 0.47 0.823 0.47l1.337 2.095 2.03-0.004c0.729 0 0.729 0.952 0 0.952h-2.353z"></path></g><g id="SvgjsG1783"><path d="M8.43 3.58a1.188 1.188 0 0 0 0-2.372 1.186 1.186 0 0 0 0 2.372"></path><path d="M9.314 3.844h-1.73L4.634 0.894A0.6 0.6 0 0 0 3.78 0.874a0.6 0.6 0 0 0-0.024 0.856l3.08 3.086v10.228a0.664 0.664 0 0 0 1.334 0V9.496h0.54v5.548c0 0.37 0.304 0.668 0.67 0.668 0.368 0 0.664-0.3 0.664-0.668L10.04 4.816 13.12 1.73a0.6 0.6 0 0 0-0.02-0.854 0.6 0.6 0 0 0-0.856 0.02L9.314 3.84z"></path></g><g id="SvgjsG1789"><path d="M16 11.289H0C0.001 12.447 0.884 12.984 1.594 12.987H14.406c0.847-0.003 1.59-0.669 1.594-1.698zM12.96 3.12H3.413v6.263c0.002 0.851 0.734 1.523 1.525 1.525h6.194c0.893-0.002 1.502-0.752 1.498-1.525v-0.519c1.768-0.002 3.05-1.328 3.05-2.876 0.001-1.575-1.256-2.869-2.72-2.868zM12.63 7.668V4.298h0.33c1.211-0.002 1.599 1.143 1.593 1.698 0.001 0.896-0.662 1.755-1.923 1.672z"></path></g><g id="SvgjsG1788"><path d="M15.98 13.856L11.694 9.568a6.304 6.304 0 1 0-5.388 3.04 6.26 6.26 0 0 0 3.26-0.914l4.29 4.292L15.98 13.856zM2.406 6.308a3.908 3.908 0 0 1 3.9-3.9 3.906 3.906 0 0 1 3.9 3.9 3.9 3.9 0 0 1-7.8 0z"></path></g><g id="SvgjsG1785"><path d="M8 2.022C3.815 2.022 0.422 4.579 0.422 7.733c0 1.544 0.814 2.944 2.135 3.972l0.003 3.427 3.961-1.798c0.479 0.071 0.973 0.11 1.48 0.11 4.185 0 7.578-2.557 7.578-5.711 0-3.154-3.392-5.711-7.577-5.711zM4.81 8.933a1.067 1.067 0 1 1 0-2.133 1.067 1.067 0 0 1 0 2.133z m3.186 0a1.067 1.067 0 1 1 0-2.133 1.067 1.067 0 0 1 0 2.133z m3.143 0c-0.589 0-1.067-0.478-1.067-1.066s0.477-1.067 1.067-1.067 1.067 0.478 1.067 1.067a1.067 1.067 0 0 1-1.067 1.066z"></path></g><g id="SvgjsG1786"><path d="M3.755 2.315h2.494v11.128h-2.494zM13.507 0.537H16v11.261h-2.493z"></path><path d="M4.451 5.556l-0.696-3.24L16 0v3.167z"></path><path d="M0 13.443a3.124 2.606 0 1 0 6.249 0 3.124 2.606 0 1 0-6.249 0"></path><path d="M9.751 11.798a3.124 2.606 0 1 0 6.249 0 3.124 2.606 0 1 0-6.249 0"></path></g><g id="SvgjsG1791"><use xlink:href="#SvgjsG1782" transform="translate(0, 0) scale(0.7)" fill="rgba(170, 189, 213, 1)"></use><use xlink:href="#SvgjsG1783" transform="translate(0, 16.099999999999998) scale(0.7)" fill="rgba(170, 189, 213, 1)"></use><use xlink:href="#SvgjsG1782" transform="translate(0, 32.199999999999996) scale(0.7)" fill="rgba(170, 189, 213, 1)"></use><use xlink:href="#SvgjsG1784" transform="translate(0, 48.3) scale(0.7)" fill="rgba(170, 189, 213, 1)"></use><use xlink:href="#SvgjsG1785" transform="translate(0, 64.39999999999999) scale(0.7)" fill="rgba(170, 189, 213, 1)"></use><use xlink:href="#SvgjsG1782" transform="translate(0, 80.49999999999999) scale(0.7)" fill="rgba(170, 189, 213, 1)"></use><use xlink:href="#SvgjsG1783" transform="translate(0, 96.6) scale(0.7)" fill="rgba(170, 189, 213, 1)"></use><use xlink:href="#SvgjsG1786" transform="translate(0, 112.69999999999999) scale(0.7)" fill="rgba(170, 189, 213, 1)"></use><use xlink:href="#SvgjsG1782" transform="translate(0, 128.79999999999998) scale(0.7)" fill="rgba(170, 189, 213, 1)"></use><use xlink:href="#SvgjsG1784" transform="translate(0, 144.89999999999998) scale(0.7)" fill="rgba(170, 189, 213, 1)"></use><use xlink:href="#SvgjsG1787" transform="translate(16.099999999999998, 0) scale(0.7)" fill="rgba(170, 189, 213, 1)"></use><use xlink:href="#SvgjsG1787" transform="translate(16.099999999999998, 16.099999999999998) scale(0.7)" fill="rgba(170, 189, 213, 1)"></use><use xlink:href="#SvgjsG1785" transform="translate(16.099999999999998, 32.199999999999996) scale(0.7)" fill="rgba(170, 189, 213, 1)"></use><use xlink:href="#SvgjsG1782" transform="translate(16.099999999999998, 48.3) scale(0.7)" fill="rgba(170, 189, 213, 1)"></use><use xlink:href="#SvgjsG1783" transform="translate(16.099999999999998, 64.39999999999999) scale(0.7)" fill="rgba(170, 189, 213, 1)"></use><use xlink:href="#SvgjsG1783" transform="translate(16.099999999999998, 80.49999999999999) scale(0.7)" fill="rgba(170, 189, 213, 1)"></use><use xlink:href="#SvgjsG1786" transform="translate(16.099999999999998, 96.6) scale(0.7)" fill="rgba(170, 189, 213, 1)"></use><use xlink:href="#SvgjsG1784" transform="translate(16.099999999999998, 112.69999999999999) scale(0.7)" fill="rgba(170, 189, 213, 1)"></use><use xlink:href="#SvgjsG1788" transform="translate(16.099999999999998, 128.79999999999998) scale(0.7)" fill="rgba(170, 189, 213, 1)"></use><use xlink:href="#SvgjsG1785" transform="translate(16.099999999999998, 144.89999999999998) scale(0.7)" fill="rgba(170, 189, 213, 1)"></use><use xlink:href="#SvgjsG1789" transform="translate(32.199999999999996, 0) scale(0.7)" fill="rgba(170, 189, 213, 1)"></use><use xlink:href="#SvgjsG1789" transform="translate(32.199999999999996, 16.099999999999998) scale(0.7)" fill="rgba(170, 189, 213, 1)"></use><use xlink:href="#SvgjsG1782" transform="translate(32.199999999999996, 32.199999999999996) scale(0.7)" fill="rgba(170, 189, 213, 1)"></use><use xlink:href="#SvgjsG1787" transform="translate(32.199999999999996, 48.3) scale(0.7)" fill="rgba(170, 189, 213, 1)"></use><use xlink:href="#SvgjsG1789" transform="translate(32.199999999999996, 64.39999999999999) scale(0.7)" fill="rgba(170, 189, 213, 1)"></use><use xlink:href="#SvgjsG1788" transform="translate(32.199999999999996, 80.49999999999999) scale(0.7)" fill="rgba(170, 189, 213, 1)"></use><use xlink:href="#SvgjsG1789" transform="translate(32.199999999999996, 96.6) scale(0.7)" fill="rgba(170, 189, 213, 1)"></use><use xlink:href="#SvgjsG1790" transform="translate(32.199999999999996, 112.69999999999999) scale(0.7)" fill="rgba(170, 189, 213, 1)"></use><use xlink:href="#SvgjsG1782" transform="translate(32.199999999999996, 128.79999999999998) scale(0.7)" fill="rgba(170, 189, 213, 1)"></use><use xlink:href="#SvgjsG1787" transform="translate(32.199999999999996, 144.89999999999998) scale(0.7)" fill="rgba(170, 189, 213, 1)"></use><use xlink:href="#SvgjsG1788" transform="translate(48.3, 0) scale(0.7)" fill="rgba(170, 189, 213, 1)"></use><use xlink:href="#SvgjsG1783" transform="translate(48.3, 16.099999999999998) scale(0.7)" fill="rgba(170, 189, 213, 1)"></use><use xlink:href="#SvgjsG1789" transform="translate(48.3, 32.199999999999996) scale(0.7)" fill="rgba(170, 189, 213, 1)"></use><use xlink:href="#SvgjsG1783" transform="translate(48.3, 48.3) scale(0.7)" fill="rgba(170, 189, 213, 1)"></use><use xlink:href="#SvgjsG1782" transform="translate(48.3, 64.39999999999999) scale(0.7)" fill="rgba(170, 189, 213, 1)"></use><use xlink:href="#SvgjsG1786" transform="translate(48.3, 80.49999999999999) scale(0.7)" fill="rgba(170, 189, 213, 1)"></use><use xlink:href="#SvgjsG1787" transform="translate(48.3, 96.6) scale(0.7)" fill="rgba(170, 189, 213, 1)"></use><use xlink:href="#SvgjsG1787" transform="translate(48.3, 112.69999999999999) scale(0.7)" fill="rgba(170, 189, 213, 1)"></use><use xlink:href="#SvgjsG1785" transform="translate(48.3, 128.79999999999998) scale(0.7)" fill="rgba(170, 189, 213, 1)"></use><use xlink:href="#SvgjsG1783" transform="translate(48.3, 144.89999999999998) scale(0.7)" fill="rgba(170, 189, 213, 1)"></use><use xlink:href="#SvgjsG1787" transform="translate(64.39999999999999, 0) scale(0.7)" fill="rgba(170, 189, 213, 1)"></use><use xlink:href="#SvgjsG1789" transform="translate(64.39999999999999, 16.099999999999998) scale(0.7)" fill="rgba(170, 189, 213, 1)"></use><use xlink:href="#SvgjsG1785" transform="translate(64.39999999999999, 32.199999999999996) scale(0.7)" fill="rgba(170, 189, 213, 1)"></use><use xlink:href="#SvgjsG1786" transform="translate(64.39999999999999, 48.3) scale(0.7)" fill="rgba(170, 189, 213, 1)"></use><use xlink:href="#SvgjsG1790" transform="translate(64.39999999999999, 64.39999999999999) scale(0.7)" fill="rgba(170, 189, 213, 1)"></use><use xlink:href="#SvgjsG1786" transform="translate(64.39999999999999, 80.49999999999999) scale(0.7)" fill="rgba(170, 189, 213, 1)"></use><use xlink:href="#SvgjsG1783" transform="translate(64.39999999999999, 96.6) scale(0.7)" fill="rgba(170, 189, 213, 1)"></use><use xlink:href="#SvgjsG1785" transform="translate(64.39999999999999, 112.69999999999999) scale(0.7)" fill="rgba(170, 189, 213, 1)"></use><use xlink:href="#SvgjsG1784" transform="translate(64.39999999999999, 128.79999999999998) scale(0.7)" fill="rgba(170, 189, 213, 1)"></use><use xlink:href="#SvgjsG1786" transform="translate(64.39999999999999, 144.89999999999998) scale(0.7)" fill="rgba(170, 189, 213, 1)"></use><use xlink:href="#SvgjsG1790" transform="translate(80.49999999999999, 0) scale(0.7)" fill="rgba(170, 189, 213, 1)"></use><use xlink:href="#SvgjsG1783" transform="translate(80.49999999999999, 16.099999999999998) scale(0.7)" fill="rgba(170, 189, 213, 1)"></use><use xlink:href="#SvgjsG1782" transform="translate(80.49999999999999, 32.199999999999996) scale(0.7)" fill="rgba(170, 189, 213, 1)"></use><use xlink:href="#SvgjsG1784" transform="translate(80.49999999999999, 48.3) scale(0.7)" fill="rgba(170, 189, 213, 1)"></use><use xlink:href="#SvgjsG1789" transform="translate(80.49999999999999, 64.39999999999999) scale(0.7)" fill="rgba(170, 189, 213, 1)"></use><use xlink:href="#SvgjsG1785" transform="translate(80.49999999999999, 80.49999999999999) scale(0.7)" fill="rgba(170, 189, 213, 1)"></use><use xlink:href="#SvgjsG1786" transform="translate(80.49999999999999, 96.6) scale(0.7)" fill="rgba(170, 189, 213, 1)"></use><use xlink:href="#SvgjsG1788" transform="translate(80.49999999999999, 112.69999999999999) scale(0.7)" fill="rgba(170, 189, 213, 1)"></use><use xlink:href="#SvgjsG1784" transform="translate(80.49999999999999, 128.79999999999998) scale(0.7)" fill="rgba(170, 189, 213, 1)"></use><use xlink:href="#SvgjsG1785" transform="translate(80.49999999999999, 144.89999999999998) scale(0.7)" fill="rgba(170, 189, 213, 1)"></use><use xlink:href="#SvgjsG1784" transform="translate(96.6, 0) scale(0.7)" fill="rgba(170, 189, 213, 1)"></use><use xlink:href="#SvgjsG1785" transform="translate(96.6, 16.099999999999998) scale(0.7)" fill="rgba(170, 189, 213, 1)"></use><use xlink:href="#SvgjsG1788" transform="translate(96.6, 32.199999999999996) scale(0.7)" fill="rgba(170, 189, 213, 1)"></use><use xlink:href="#SvgjsG1784" transform="translate(96.6, 48.3) scale(0.7)" fill="rgba(170, 189, 213, 1)"></use><use xlink:href="#SvgjsG1788" transform="translate(96.6, 64.39999999999999) scale(0.7)" fill="rgba(170, 189, 213, 1)"></use><use xlink:href="#SvgjsG1785" transform="translate(96.6, 80.49999999999999) scale(0.7)" fill="rgba(170, 189, 213, 1)"></use><use xlink:href="#SvgjsG1784" transform="translate(96.6, 96.6) scale(0.7)" fill="rgba(170, 189, 213, 1)"></use><use xlink:href="#SvgjsG1786" transform="translate(96.6, 112.69999999999999) scale(0.7)" fill="rgba(170, 189, 213, 1)"></use><use xlink:href="#SvgjsG1786" transform="translate(96.6, 128.79999999999998) scale(0.7)" fill="rgba(170, 189, 213, 1)"></use><use xlink:href="#SvgjsG1783" transform="translate(96.6, 144.89999999999998) scale(0.7)" fill="rgba(170, 189, 213, 1)"></use><use xlink:href="#SvgjsG1783" transform="translate(112.69999999999999, 0) scale(0.7)" fill="rgba(170, 189, 213, 1)"></use><use xlink:href="#SvgjsG1786" transform="translate(112.69999999999999, 16.099999999999998) scale(0.7)" fill="rgba(170, 189, 213, 1)"></use><use xlink:href="#SvgjsG1785" transform="translate(112.69999999999999, 32.199999999999996) scale(0.7)" fill="rgba(170, 189, 213, 1)"></use><use xlink:href="#SvgjsG1788" transform="translate(112.69999999999999, 48.3) scale(0.7)" fill="rgba(170, 189, 213, 1)"></use><use xlink:href="#SvgjsG1790" transform="translate(112.69999999999999, 64.39999999999999) scale(0.7)" fill="rgba(170, 189, 213, 1)"></use><use xlink:href="#SvgjsG1788" transform="translate(112.69999999999999, 80.49999999999999) scale(0.7)" fill="rgba(170, 189, 213, 1)"></use><use xlink:href="#SvgjsG1782" transform="translate(112.69999999999999, 96.6) scale(0.7)" fill="rgba(170, 189, 213, 1)"></use><use xlink:href="#SvgjsG1782" transform="translate(112.69999999999999, 112.69999999999999) scale(0.7)" fill="rgba(170, 189, 213, 1)"></use><use xlink:href="#SvgjsG1789" transform="translate(112.69999999999999, 128.79999999999998) scale(0.7)" fill="rgba(170, 189, 213, 1)"></use><use xlink:href="#SvgjsG1789" transform="translate(112.69999999999999, 144.89999999999998) scale(0.7)" fill="rgba(170, 189, 213, 1)"></use><use xlink:href="#SvgjsG1787" transform="translate(128.79999999999998, 0) scale(0.7)" fill="rgba(170, 189, 213, 1)"></use><use xlink:href="#SvgjsG1784" transform="translate(128.79999999999998, 16.099999999999998) scale(0.7)" fill="rgba(170, 189, 213, 1)"></use><use xlink:href="#SvgjsG1782" transform="translate(128.79999999999998, 32.199999999999996) scale(0.7)" fill="rgba(170, 189, 213, 1)"></use><use xlink:href="#SvgjsG1787" transform="translate(128.79999999999998, 48.3) scale(0.7)" fill="rgba(170, 189, 213, 1)"></use><use xlink:href="#SvgjsG1783" transform="translate(128.79999999999998, 64.39999999999999) scale(0.7)" fill="rgba(170, 189, 213, 1)"></use><use xlink:href="#SvgjsG1790" transform="translate(128.79999999999998, 80.49999999999999) scale(0.7)" fill="rgba(170, 189, 213, 1)"></use><use xlink:href="#SvgjsG1789" transform="translate(128.79999999999998, 96.6) scale(0.7)" fill="rgba(170, 189, 213, 1)"></use><use xlink:href="#SvgjsG1787" transform="translate(128.79999999999998, 112.69999999999999) scale(0.7)" fill="rgba(170, 189, 213, 1)"></use><use xlink:href="#SvgjsG1786" transform="translate(128.79999999999998, 128.79999999999998) scale(0.7)" fill="rgba(170, 189, 213, 1)"></use><use xlink:href="#SvgjsG1786" transform="translate(128.79999999999998, 144.89999999999998) scale(0.7)" fill="rgba(170, 189, 213, 1)"></use><use xlink:href="#SvgjsG1787" transform="translate(144.89999999999998, 0) scale(0.7)" fill="rgba(170, 189, 213, 1)"></use><use xlink:href="#SvgjsG1782" transform="translate(144.89999999999998, 16.099999999999998) scale(0.7)" fill="rgba(170, 189, 213, 1)"></use><use xlink:href="#SvgjsG1790" transform="translate(144.89999999999998, 32.199999999999996) scale(0.7)" fill="rgba(170, 189, 213, 1)"></use><use xlink:href="#SvgjsG1784" transform="translate(144.89999999999998, 48.3) scale(0.7)" fill="rgba(170, 189, 213, 1)"></use><use xlink:href="#SvgjsG1785" transform="translate(144.89999999999998, 64.39999999999999) scale(0.7)" fill="rgba(170, 189, 213, 1)"></use><use xlink:href="#SvgjsG1783" transform="translate(144.89999999999998, 80.49999999999999) scale(0.7)" fill="rgba(170, 189, 213, 1)"></use><use xlink:href="#SvgjsG1783" transform="translate(144.89999999999998, 96.6) scale(0.7)" fill="rgba(170, 189, 213, 1)"></use><use xlink:href="#SvgjsG1788" transform="translate(144.89999999999998, 112.69999999999999) scale(0.7)" fill="rgba(170, 189, 213, 1)"></use><use xlink:href="#SvgjsG1783" transform="translate(144.89999999999998, 128.79999999999998) scale(0.7)" fill="rgba(170, 189, 213, 1)"></use><use xlink:href="#SvgjsG1784" transform="translate(144.89999999999998, 144.89999999999998) scale(0.7)" fill="rgba(170, 189, 213, 1)"></use></g></defs></svg>